<?xml version="1.0" encoding="UTF-8" standalone="no"?>
<svg width="24px" height="24px" viewBox="0 0 2048 2048" version="1.1" xmlns="http://www.w3.org/2000/svg" xmlns:xlink="http://www.w3.org/1999/xlink">
    <title>rounded-rectangle-ios-perfect-center</title>
    <desc>Created for scratch-paint</desc>
    <defs></defs>
    <g transform="translate(512, 512)" stroke-linecap="round" stroke-linejoin="round">
        <path d="M1023.99 358c0-13.67 0.01-27.34-0.08-41.01-0.06-11.51-0.2-23.02-0.51-34.53-0.68-25.08-2.15-50.38-6.61-75.19-4.53-25.16-11.91-48.58-23.54-71.44-11.44-22.47-26.39-43.03-44.22-60.86-17.83-17.83-38.39-32.78-60.86-44.22-22.86-11.63-46.28-19.01-71.44-23.54-24.81-4.46-50.11-5.93-75.19-6.61-11.51-0.31-23.02-0.45-34.53-0.51-13.67-0.09-27.34-0.08-41.01-0.08h-308c-13.67 0-27.34-0.01-41.01 0.08-11.51 0.06-23.02 0.2-34.53 0.51-25.08 0.68-50.38 2.15-75.19 6.61-25.16 4.53-48.58 11.91-71.44 23.54-22.47 11.44-43.03 26.39-60.86 44.22-17.83 17.83-32.78 38.39-44.22 60.86-11.63 22.86-19.01 46.28-23.54 71.44-4.46 24.81-5.93 50.11-6.61 75.19-0.31 11.51-0.45 23.02-0.51 34.53-0.09 13.67-0.08 27.34-0.08 41.01v308c0 13.67-0.01 27.34 0.08 41.01 0.06 11.51 0.2 23.02 0.51 34.53 0.68 25.08 2.15 50.38 6.61 75.19 4.53 25.16 11.91 48.58 23.54 71.44 11.44 22.47 26.39 43.03 44.22 60.86 17.83 17.83 38.39 32.78 60.86 44.22 22.86 11.63 46.28 19.01 71.44 23.54 24.81 4.46 50.11 5.93 75.19 6.61 11.51 0.31 23.02 0.45 34.53 0.51 13.67 0.09 27.34 0.08 41.01 0.08h308c13.67 0 27.34 0.01 41.01-0.08 11.51-0.06 23.02-0.2 34.53-0.51 25.08-0.68 50.38-2.15 75.19-6.61 25.16-4.53 48.58-11.91 71.44-23.54 22.47-11.44 43.03-26.39 60.86-44.22 17.83-17.83 32.78-38.39 44.22-60.86 11.63-22.86 19.01-46.28 23.54-71.44 4.46-24.81 5.93-50.11 6.61-75.19 0.31-11.51 0.45-23.02 0.51-34.53 0.09-13.67 0.08-27.34 0.08-41.01z" fill="none" stroke="#575E75" stroke-width="153.6" />
        
        <text x="512" y="512" 
              fill="#575E75" 
              font-family="-apple-system, BlinkMacSystemFont, 'Segoe UI', Roboto, sans-serif" 
              font-size="230" 
              font-weight="900" 
              letter-spacing="-15"
              text-anchor="middle" 
              dominant-baseline="central"
              transform="scale(2.1)" 
              transform-origin="512 512">iOS</text>
    </g>
</svg>
